<svg width="405" height="452" viewBox="0 0 405 452" fill="none" xmlns="http://www.w3.org/2000/svg">
<mask id="mask0" mask-type="alpha" maskUnits="userSpaceOnUse" x="0" y="0" width="405" height="452">
<rect width="405" height="452" transform="matrix(1 0 0 -1 0 452)" fill="#C4C4C4"/>
</mask>
<g mask="url(#mask0)">
<ellipse rx="231.083" ry="225.233" transform="matrix(1 0 0 -1 174.13 225.233)" fill="#E4D7B9"/>
<path d="M41.5547 149V141.25H41.5938L44.6094 148.109H45.7656L48.7812 141.25H48.8281V149H50.0625V138.336H48.7344L45.2109 146.578H45.1797L41.6484 138.336H40.3203V149H41.5547ZM58.0519 147.977H58.0909V149H59.38V143.336C59.38 141.609 58.1066 140.656 56.3566 140.656C54.3722 140.656 53.3956 141.703 53.3097 143.141H54.5753C54.6534 142.32 55.255 141.781 56.3097 141.781C57.4191 141.781 58.0441 142.375 58.0441 143.453V144.289H55.88C53.9972 144.297 52.9972 145.203 52.9972 146.641C52.9972 148.148 54.0909 149.133 55.6769 149.133C56.8878 149.133 57.6378 148.641 58.0519 147.977ZM56.0363 148.016C55.1769 148.016 54.3722 147.562 54.3722 146.594C54.3722 145.852 54.8566 145.32 55.9816 145.32H58.0441V146.273C58.0441 147.297 57.1847 148.016 56.0363 148.016ZM63.0803 140.789H61.9709V141.914H63.0725V146.703C63.0725 148.32 63.4709 149.07 65.4163 149.07C65.6975 149.07 65.9788 149.039 66.0959 149.016V147.938C65.9866 147.953 65.885 147.953 65.7522 147.953C64.7444 147.953 64.4163 147.703 64.4163 146.719V141.914H66.0413V140.789H64.4163V138.742H63.0803V140.789ZM71.9369 149.133C73.7494 149.133 74.8353 148.125 75.1478 146.766H73.8119C73.5462 147.531 72.9212 148.008 71.9681 148.008C70.6322 148.008 69.8353 146.938 69.8353 145.375V145.227H75.2572V144.461C75.2572 142.203 74.0228 140.656 71.8744 140.656C69.7181 140.656 68.4916 142.203 68.4916 144.367V145.289C68.4916 147.625 69.7962 149.133 71.9369 149.133ZM69.8353 144.141V144.117C69.8353 142.82 70.6322 141.781 71.8822 141.781C73.1087 141.781 73.9134 142.812 73.9134 144.117V144.141H69.8353ZM78.1684 149H79.52V143.914C79.52 142.805 79.9731 141.898 81.4263 141.898C81.6763 141.898 81.9419 141.906 82.0825 141.93V140.703C81.9184 140.68 81.7466 140.664 81.5747 140.664C80.4106 140.664 79.7934 141.305 79.5513 141.797H79.5122V140.789H78.1684V149ZM84.6578 138.812C84.6578 139.289 85.0406 139.664 85.5172 139.664C85.9938 139.664 86.3844 139.289 86.3844 138.812C86.3844 138.328 85.9938 137.953 85.5172 137.953C85.0406 137.953 84.6578 138.328 84.6578 138.812ZM84.8453 149H86.1891V140.789H84.8453V149ZM94.1394 147.977H94.1784V149H95.4675V143.336C95.4675 141.609 94.1941 140.656 92.4441 140.656C90.4597 140.656 89.4831 141.703 89.3972 143.141H90.6628C90.7409 142.32 91.3425 141.781 92.3972 141.781C93.5066 141.781 94.1316 142.375 94.1316 143.453V144.289H91.9675C90.0847 144.297 89.0847 145.203 89.0847 146.641C89.0847 148.148 90.1784 149.133 91.7644 149.133C92.9753 149.133 93.7253 148.641 94.1394 147.977ZM92.1237 148.016C91.2644 148.016 90.4597 147.562 90.4597 146.594C90.4597 145.852 90.9441 145.32 92.0691 145.32H94.1316V146.273C94.1316 147.297 93.2722 148.016 92.1237 148.016ZM98.7225 149H100.058V137.773H98.7225V149ZM103.321 142.688C103.321 143.188 103.728 143.594 104.228 143.594C104.72 143.594 105.126 143.188 105.126 142.688C105.126 142.195 104.72 141.789 104.228 141.789C103.728 141.789 103.321 142.195 103.321 142.688ZM103.321 148.25C103.321 148.742 103.728 149.148 104.228 149.148C104.72 149.148 105.126 148.742 105.126 148.25C105.126 147.75 104.72 147.344 104.228 147.344C103.728 147.344 103.321 147.75 103.321 148.25ZM113.011 142.688C113.011 140.539 114.05 138.641 116.417 138.641C118.417 138.641 119.519 140.117 119.527 141.367H120.066V141.336C120.066 139.836 118.8 138.133 116.417 138.133C113.667 138.133 112.456 140.258 112.456 142.773V144.633C112.456 147.156 113.605 149.25 116.456 149.25C118.714 149.25 120.152 147.773 120.152 146.07V146.047H119.605C119.605 147.539 118.355 148.742 116.456 148.742C114.011 148.742 113.011 146.836 113.011 144.703V142.688ZM126.227 140.789C124.344 140.789 122.961 142.062 122.961 144.383V145.578C122.961 147.883 124.36 149.141 126.227 149.141C128.086 149.141 129.508 147.891 129.508 145.578V144.383C129.508 142.094 128.071 140.789 126.227 140.789ZM126.227 141.297C127.774 141.297 128.953 142.391 128.953 144.453V145.516C128.953 147.594 127.782 148.633 126.235 148.633C124.664 148.633 123.508 147.57 123.508 145.516V144.453C123.508 142.375 124.672 141.297 126.227 141.297ZM135.935 149.141C137.552 149.141 139.021 148 139.021 145.695V144.219C139.021 142.102 137.708 140.789 135.958 140.789C134.154 140.789 133.443 142.055 133.279 142.547H133.247V140.93H132.708V151.586H133.255V147.414H133.287C133.521 148.062 134.271 149.141 135.935 149.141ZM135.927 148.633C134.294 148.633 133.255 147.305 133.255 145.594V144.289C133.255 142.742 134.201 141.297 135.919 141.297C137.341 141.297 138.466 142.383 138.466 144.305V145.586C138.466 147.68 137.232 148.633 135.927 148.633ZM145.456 149.141C147.073 149.141 148.542 148 148.542 145.695V144.219C148.542 142.102 147.229 140.789 145.479 140.789C143.674 140.789 142.963 142.055 142.799 142.547H142.768V140.93H142.229V151.586H142.776V147.414H142.807C143.042 148.062 143.792 149.141 145.456 149.141ZM145.448 148.633C143.815 148.633 142.776 147.305 142.776 145.594V144.289C142.776 142.742 143.721 141.297 145.44 141.297C146.862 141.297 147.987 142.383 147.987 144.305V145.586C147.987 147.68 146.753 148.633 145.448 148.633ZM154.57 149.141C156.484 149.141 157.382 147.922 157.492 146.977H156.937C156.836 147.719 156.101 148.633 154.578 148.633C152.953 148.633 151.914 147.5 151.914 145.422V144.992H157.609V144.602C157.609 142.102 156.351 140.789 154.484 140.789C152.609 140.789 151.367 142.102 151.367 144.586V145.438C151.367 147.797 152.578 149.141 154.57 149.141ZM151.914 144.5V144.469C151.914 142.469 152.937 141.297 154.484 141.297C156.031 141.297 157.054 142.469 157.054 144.469V144.5H151.914ZM160.794 149H161.348V144.328C161.348 142.5 162.13 141.32 163.606 141.32C163.911 141.32 164.2 141.375 164.286 141.391V140.867C164.184 140.852 163.997 140.805 163.669 140.805C162.2 140.805 161.614 141.664 161.38 142.5H161.348V140.93H160.794V149ZM40.2812 180.336V191H43.7031C46.7969 191 48.3906 189.156 48.3906 185.664C48.3906 182.164 46.8047 180.336 43.7031 180.336H40.2812ZM41.6484 181.555H43.625C45.8906 181.555 46.9766 182.945 46.9766 185.664C46.9766 188.461 45.8359 189.781 43.625 189.781H41.6484V181.555ZM51.0597 180.812C51.0597 181.289 51.4425 181.664 51.9191 181.664C52.3956 181.664 52.7863 181.289 52.7863 180.812C52.7863 180.328 52.3956 179.953 51.9191 179.953C51.4425 179.953 51.0597 180.328 51.0597 180.812ZM51.2472 191H52.5909V182.789H51.2472V191ZM55.9553 191H57.2991V185.797C57.2991 184.555 58.0881 183.867 59.0959 183.867C60.2131 183.867 60.885 184.555 60.885 185.812V191H62.2209V185.812C62.2209 184.672 62.8694 183.867 64.0334 183.867C65.2053 183.867 65.8069 184.641 65.8069 185.688V191H67.1428V185.414C67.1428 183.727 66.1194 182.656 64.385 182.656C63.0491 182.656 62.1819 183.273 61.8694 183.977H61.8069C61.4866 183.172 60.7209 182.656 59.4397 182.656C58.3538 182.656 57.6272 183.234 57.3616 183.797H57.2913V182.789H55.9553V191ZM73.4994 191.133C75.3119 191.133 76.3978 190.125 76.7103 188.766H75.3744C75.1087 189.531 74.4837 190.008 73.5306 190.008C72.1947 190.008 71.3978 188.938 71.3978 187.375V187.227H76.8197V186.461C76.8197 184.203 75.5853 182.656 73.4369 182.656C71.2806 182.656 70.0541 184.203 70.0541 186.367V187.289C70.0541 189.625 71.3587 191.133 73.4994 191.133ZM71.3978 186.141V186.117C71.3978 184.82 72.1947 183.781 73.4447 183.781C74.6712 183.781 75.4759 184.812 75.4759 186.117V186.141H71.3978ZM79.7309 191H81.0747V186C81.0747 184.875 81.6841 183.875 83.0981 183.875C84.2934 183.875 85.1059 184.578 85.1059 185.961V191H86.4497V185.734C86.4497 183.734 85.1919 182.656 83.5044 182.656C82.1684 182.656 81.4106 183.352 81.1059 183.875H81.0669V182.789H79.7309V191ZM89.2594 185.141C89.2594 186.625 90.5172 187.094 92.0484 187.406C93.1969 187.633 94.1109 187.812 94.1109 188.742C94.1109 189.438 93.5406 190.031 92.2828 190.031C91.1891 190.031 90.5484 189.539 90.4313 188.789H89.1188C89.1188 190.266 90.3766 191.133 92.1813 191.133C94.1109 191.133 95.4313 190.211 95.4313 188.578C95.4313 186.977 94.1344 186.562 92.5953 186.289C91.6578 186.117 90.5719 185.922 90.5719 185C90.5719 184.188 91.275 183.758 92.2516 183.758C93.5328 183.758 93.9234 184.492 93.9703 185.117H95.2203C95.2203 183.758 94.2281 182.656 92.2984 182.656C90.7203 182.656 89.2594 183.406 89.2594 185.141ZM98.1159 180.812C98.1159 181.289 98.4987 181.664 98.9753 181.664C99.4519 181.664 99.8425 181.289 99.8425 180.812C99.8425 180.328 99.4519 179.953 98.9753 179.953C98.4987 179.953 98.1159 180.328 98.1159 180.812ZM98.3034 191H99.6472V182.789H98.3034V191ZM106.215 182.656C103.918 182.656 102.683 184.32 102.683 186.516V187.25C102.683 189.477 103.91 191.133 106.215 191.133C108.519 191.133 109.73 189.477 109.73 187.25V186.516C109.73 184.32 108.512 182.656 106.215 182.656ZM106.215 183.805C107.621 183.805 108.387 184.883 108.387 186.562V187.203C108.387 188.883 107.621 189.969 106.215 189.969C104.801 189.969 104.027 188.875 104.027 187.203V186.562C104.027 184.883 104.801 183.805 106.215 183.805ZM112.688 191H114.032V186C114.032 184.875 114.642 183.875 116.056 183.875C117.251 183.875 118.063 184.578 118.063 185.961V191H119.407V185.734C119.407 183.734 118.149 182.656 116.462 182.656C115.126 182.656 114.368 183.352 114.063 183.875H114.024V182.789H112.688V191ZM122.217 185.141C122.217 186.625 123.475 187.094 125.006 187.406C126.154 187.633 127.068 187.812 127.068 188.742C127.068 189.438 126.498 190.031 125.24 190.031C124.147 190.031 123.506 189.539 123.389 188.789H122.076C122.076 190.266 123.334 191.133 125.139 191.133C127.068 191.133 128.389 190.211 128.389 188.578C128.389 186.977 127.092 186.562 125.553 186.289C124.615 186.117 123.529 185.922 123.529 185C123.529 184.188 124.232 183.758 125.209 183.758C126.49 183.758 126.881 184.492 126.928 185.117H128.178C128.178 183.758 127.186 182.656 125.256 182.656C123.678 182.656 122.217 183.406 122.217 185.141ZM137.875 179.773C136.36 181.594 135.68 183.703 135.68 186.469C135.68 189.227 136.477 191.727 137.805 193.414H138.969C137.657 191.094 137.016 188.984 137.016 186.453C137.016 183.828 137.875 181.055 138.993 179.773H137.875ZM140.802 187.266C140.802 189.453 142.029 191.133 144.208 191.133C146.091 191.133 147.122 190.148 147.396 188.742H146.076C145.927 189.398 145.326 189.945 144.302 189.945C142.99 189.945 142.146 188.883 142.146 187.273V186.508C142.146 184.852 142.935 183.844 144.294 183.844C145.185 183.844 145.833 184.477 146.013 185.172H147.333C147.263 183.914 146.107 182.656 144.208 182.656C142.068 182.656 140.802 184.242 140.802 186.453V187.266ZM150.151 191H151.495V185.797C151.495 184.555 152.284 183.867 153.292 183.867C154.409 183.867 155.081 184.555 155.081 185.812V191H156.417V185.812C156.417 184.672 157.065 183.867 158.229 183.867C159.401 183.867 160.003 184.641 160.003 185.688V191H161.338V185.414C161.338 183.727 160.315 182.656 158.581 182.656C157.245 182.656 156.378 183.273 156.065 183.977H156.003C155.682 183.172 154.917 182.656 153.635 182.656C152.549 182.656 151.823 183.234 151.557 183.797H151.487V182.789H150.151V191ZM163.687 179.773C164.804 181.055 165.664 183.828 165.664 186.453C165.664 188.984 165.031 191.094 163.711 193.414H164.882C166.211 191.727 167.007 189.227 167.007 186.469C167.007 183.703 166.32 181.594 164.804 179.773H163.687ZM170.622 184.688C170.622 185.188 171.028 185.594 171.528 185.594C172.02 185.594 172.427 185.188 172.427 184.688C172.427 184.195 172.02 183.789 171.528 183.789C171.028 183.789 170.622 184.195 170.622 184.688ZM170.622 190.25C170.622 190.742 171.028 191.148 171.528 191.148C172.02 191.148 172.427 190.742 172.427 190.25C172.427 189.75 172.02 189.344 171.528 189.344C171.028 189.344 170.622 189.75 170.622 190.25ZM187.562 191V180.383H187.007V185.172H180.749V180.383H180.194V191H180.749V185.672H187.007V191H187.562ZM197.134 185.773H198.189C199.962 185.773 201.306 186.734 201.306 188.234C201.306 189.672 200.126 190.742 198.415 190.742C196.556 190.742 195.517 189.516 195.493 188.352H194.931C194.947 189.766 196.126 191.25 198.392 191.25C200.392 191.25 201.876 190.008 201.868 188.211C201.868 186.516 200.423 185.594 199.095 185.5V185.484C200.15 185.375 201.361 184.445 201.353 182.836C201.345 181.32 200.197 180.133 198.228 180.133C195.954 180.133 195.15 181.828 195.15 182.906H195.704C195.712 182.031 196.368 180.641 198.22 180.641C199.845 180.641 200.775 181.641 200.775 182.883C200.775 184.172 199.822 185.266 198.056 185.266H197.134V185.773ZM206.483 185.773H207.538C209.311 185.773 210.655 186.734 210.655 188.234C210.655 189.672 209.475 190.742 207.764 190.742C205.905 190.742 204.866 189.516 204.842 188.352H204.28C204.295 189.766 205.475 191.25 207.741 191.25C209.741 191.25 211.225 190.008 211.217 188.211C211.217 186.516 209.772 185.594 208.444 185.5V185.484C209.498 185.375 210.709 184.445 210.702 182.836C210.694 181.32 209.545 180.133 207.577 180.133C205.303 180.133 204.498 181.828 204.498 182.906H205.053C205.061 182.031 205.717 180.641 207.569 180.641C209.194 180.641 210.123 181.641 210.123 182.883C210.123 184.172 209.17 185.266 207.405 185.266H206.483V185.773ZM223.251 191H223.907L221.063 186.922L223.844 182.93H223.212L220.751 186.469H220.727L218.282 182.93H217.626L220.391 186.93L217.54 191H218.173L220.704 187.391H220.727L223.251 191ZM233.323 191L236.128 181.281H236.167L238.964 191H239.581L242.386 180.383H241.784L239.276 190.172H239.245L236.44 180.383H235.847L233.05 190.172H233.018L230.511 180.383H229.901L232.706 191H233.323ZM251.958 191V180.383H251.419C250.528 180.953 249.607 181.555 248.724 182.148V182.719C249.591 182.141 250.528 181.539 251.372 180.992H251.403V191H251.958ZM255.549 188.445C255.565 189.57 256.518 191.25 258.893 191.25C260.932 191.25 262.401 189.672 262.401 187.719C262.401 185.695 260.994 184.195 258.971 184.195C257.487 184.195 256.549 185.094 256.33 185.469H256.315L256.932 180.875H261.666V180.383H256.479L255.752 186.148H256.299C256.58 185.586 257.518 184.703 258.916 184.703C260.651 184.703 261.838 186.016 261.838 187.727C261.838 189.414 260.565 190.742 258.932 190.742C256.955 190.742 256.166 189.352 256.112 188.445H255.549ZM274.426 191H275.083L272.239 186.922L275.02 182.93H274.387L271.926 186.469H271.903L269.458 182.93H268.801L271.567 186.93L268.715 191H269.348L271.879 187.391H271.903L274.426 191ZM282.108 180.383V191H284.889C288.28 191 289.655 188.938 289.655 185.688C289.655 182.445 288.225 180.383 284.889 180.383H282.108ZM282.663 180.898H284.897C287.811 180.898 289.092 182.766 289.092 185.688C289.092 188.633 287.842 190.484 284.897 190.484H282.663V180.898ZM299.79 191V180.383H299.251C298.36 180.953 297.438 181.555 296.556 182.148V182.719C297.423 182.141 298.36 181.539 299.204 180.992H299.235V191H299.79ZM303.381 188.445C303.397 189.57 304.35 191.25 306.725 191.25C308.764 191.25 310.233 189.672 310.233 187.719C310.233 185.695 308.826 184.195 306.803 184.195C305.318 184.195 304.381 185.094 304.162 185.469H304.147L304.764 180.875H309.498V180.383H304.311L303.584 186.148H304.131C304.412 185.586 305.35 184.703 306.748 184.703C308.483 184.703 309.67 186.016 309.67 187.727C309.67 189.414 308.397 190.742 306.764 190.742C304.787 190.742 303.998 189.352 303.943 188.445H303.381ZM41.5859 233V224.664H41.6172L47.0391 233H48.3516V222.336H47.0469V230.664H47.0156L41.5938 222.336H40.2812V233H41.5859ZM54.8331 233.133C56.6456 233.133 57.7316 232.125 58.0441 230.766H56.7081C56.4425 231.531 55.8175 232.008 54.8644 232.008C53.5284 232.008 52.7316 230.938 52.7316 229.375V229.227H58.1534V228.461C58.1534 226.203 56.9191 224.656 54.7706 224.656C52.6144 224.656 51.3878 226.203 51.3878 228.367V229.289C51.3878 231.625 52.6925 233.133 54.8331 233.133ZM52.7316 228.141V228.117C52.7316 226.82 53.5284 225.781 54.7784 225.781C56.005 225.781 56.8097 226.812 56.8097 228.117V228.141H52.7316ZM61.5803 224.789H60.4709V225.914H61.5725V230.703C61.5725 232.32 61.9709 233.07 63.9163 233.07C64.1975 233.07 64.4788 233.039 64.5959 233.016V231.938C64.4866 231.953 64.385 231.953 64.2522 231.953C63.2444 231.953 62.9163 231.703 62.9163 230.719V225.914H64.5413V224.789H62.9163V222.742H61.5803V224.789ZM74.4888 233L76.7309 224.633H76.7778L79.02 233H80.2309L83.1763 222.336H81.6606L79.5981 230.68H79.5513L77.4497 222.336H76.0591L73.9419 230.68H73.9028L71.8403 222.336H70.3325L73.2622 233H74.4888ZM88.1188 233.133C89.9313 233.133 91.0172 232.125 91.3297 230.766H89.9938C89.7281 231.531 89.1031 232.008 88.15 232.008C86.8141 232.008 86.0172 230.938 86.0172 229.375V229.227H91.4391V228.461C91.4391 226.203 90.2047 224.656 88.0563 224.656C85.9 224.656 84.6734 226.203 84.6734 228.367V229.289C84.6734 231.625 85.9781 233.133 88.1188 233.133ZM86.0172 228.141V228.117C86.0172 226.82 86.8141 225.781 88.0641 225.781C89.2906 225.781 90.0953 226.812 90.0953 228.117V228.141H86.0172ZM94.2409 222.812C94.2409 223.289 94.6237 223.664 95.1003 223.664C95.5769 223.664 95.9675 223.289 95.9675 222.812C95.9675 222.328 95.5769 221.953 95.1003 221.953C94.6237 221.953 94.2409 222.328 94.2409 222.812ZM94.4284 233H95.7722V224.789H94.4284V233ZM102.34 234.883C101.215 234.883 100.519 234.273 100.371 233.609H98.9959C99.1834 234.977 100.246 236.008 102.332 236.008C104.191 236.008 105.824 234.953 105.824 232.852V224.789H104.527V225.945H104.488C104.105 225.25 103.215 224.664 102.097 224.664C100.168 224.664 98.8162 226.023 98.8162 228.438V229.117C98.8162 231.578 100.183 232.922 102.097 232.922C103.215 232.922 104.113 232.336 104.441 231.625H104.48V232.836C104.48 234.125 103.637 234.883 102.34 234.883ZM102.355 225.82C103.652 225.82 104.48 226.875 104.48 228.539V229.047C104.48 230.742 103.699 231.773 102.355 231.773C100.972 231.773 100.16 230.75 100.16 229.047V228.539C100.16 226.805 100.972 225.82 102.355 225.82ZM109.149 233H110.493V228C110.493 226.875 111.103 225.875 112.517 225.875C113.72 225.875 114.524 226.578 114.524 227.961V233H115.868V227.734C115.868 225.734 114.618 224.656 112.923 224.656C111.595 224.656 110.837 225.352 110.532 225.875H110.493V221.773H109.149V233ZM119.522 224.789H118.412V225.914H119.514V230.703C119.514 232.32 119.912 233.07 121.857 233.07C122.139 233.07 122.42 233.039 122.537 233.016V231.938C122.428 231.953 122.326 231.953 122.193 231.953C121.186 231.953 120.857 231.703 120.857 230.719V225.914H122.482V224.789H120.857V222.742H119.522V224.789ZM125.206 226.688C125.206 227.188 125.613 227.594 126.113 227.594C126.605 227.594 127.011 227.188 127.011 226.688C127.011 226.195 126.605 225.789 126.113 225.789C125.613 225.789 125.206 226.195 125.206 226.688ZM125.206 232.25C125.206 232.742 125.613 233.148 126.113 233.148C126.605 233.148 127.011 232.742 127.011 232.25C127.011 231.75 126.605 231.344 126.113 231.344C125.613 231.344 125.206 231.75 125.206 232.25ZM134.896 225.023V224.992C134.904 223.82 135.794 222.641 137.466 222.641C139.154 222.641 139.997 223.781 139.997 224.906C139.997 226.148 139.271 226.969 138.615 227.727L134.396 232.539V233H140.826V232.5H135.138V232.469L138.99 228.078C139.701 227.266 140.576 226.273 140.576 224.945C140.576 223.461 139.513 222.133 137.474 222.133C135.365 222.133 134.341 223.625 134.341 224.992V225.023H134.896ZM143.768 235.078L144.604 231.586H144.003L143.299 235.078H143.768ZM147.078 230.445C147.093 231.57 148.047 233.25 150.422 233.25C152.461 233.25 153.929 231.672 153.929 229.719C153.929 227.695 152.523 226.195 150.5 226.195C149.015 226.195 148.078 227.094 147.859 227.469H147.843L148.461 222.875H153.195V222.383H148.007L147.281 228.148H147.828C148.109 227.586 149.047 226.703 150.445 226.703C152.179 226.703 153.367 228.016 153.367 229.727C153.367 231.414 152.093 232.742 150.461 232.742C148.484 232.742 147.695 231.352 147.64 230.445H147.078ZM161.713 229.672L162.877 228.609L166.338 233H167.041L163.291 228.242L166.853 224.93H166.103L161.744 228.969H161.713V221.789H161.166V233H161.713V229.672ZM172.108 235.297C170.812 235.297 169.819 234.609 169.733 233.641H169.171C169.233 234.922 170.421 235.797 172.101 235.797C173.968 235.797 175.249 234.766 175.249 233.078V224.93H174.702V226.523H174.671C174.343 225.523 173.257 224.789 172.03 224.789C170.187 224.789 168.929 226.148 168.929 228.219V229.312C168.929 231.375 170.187 232.734 172.015 232.734C173.226 232.734 174.413 231.93 174.671 230.984H174.702V233.094C174.702 234.453 173.671 235.297 172.108 235.297ZM172.054 225.297C173.608 225.297 174.702 226.539 174.702 228.312V229.25C174.702 230.984 173.601 232.227 172.054 232.227C170.507 232.227 169.483 231.023 169.483 229.219V228.336C169.483 226.5 170.499 225.297 172.054 225.297ZM46.6797 273.781H41.6406V270.148H46.3984V268.961H41.6406V265.555H46.6797V264.336H40.2812V275H46.6797V273.781ZM49.7081 275H51.0441V263.773H49.7081V275ZM57.4944 275.133C59.3069 275.133 60.3928 274.125 60.7053 272.766H59.3694C59.1038 273.531 58.4788 274.008 57.5256 274.008C56.1897 274.008 55.3928 272.938 55.3928 271.375V271.227H60.8147V270.461C60.8147 268.203 59.5803 266.656 57.4319 266.656C55.2756 266.656 54.0491 268.203 54.0491 270.367V271.289C54.0491 273.625 55.3538 275.133 57.4944 275.133ZM55.3928 270.141V270.117C55.3928 268.82 56.1897 267.781 57.4397 267.781C58.6663 267.781 59.4709 268.812 59.4709 270.117V270.141H55.3928ZM63.3978 271.266C63.3978 273.453 64.6244 275.133 66.8041 275.133C68.6869 275.133 69.7181 274.148 69.9916 272.742H68.6712C68.5228 273.398 67.9212 273.945 66.8978 273.945C65.5853 273.945 64.7416 272.883 64.7416 271.273V270.508C64.7416 268.852 65.5306 267.844 66.89 267.844C67.7806 267.844 68.4291 268.477 68.6087 269.172H69.9291C69.8587 267.914 68.7025 266.656 66.8041 266.656C64.6634 266.656 63.3978 268.242 63.3978 270.453V271.266ZM73.4809 266.789H72.3716V267.914H73.4731V272.703C73.4731 274.32 73.8716 275.07 75.8169 275.07C76.0981 275.07 76.3794 275.039 76.4966 275.016V273.938C76.3872 273.953 76.2856 273.953 76.1528 273.953C75.145 273.953 74.8169 273.703 74.8169 272.719V267.914H76.4419V266.789H74.8169V264.742H73.4809V266.789ZM79.3922 275H80.7438V269.914C80.7438 268.805 81.1969 267.898 82.65 267.898C82.9 267.898 83.1656 267.906 83.3063 267.93V266.703C83.1422 266.68 82.9703 266.664 82.7984 266.664C81.6344 266.664 81.0172 267.305 80.775 267.797H80.7359V266.789H79.3922V275ZM85.8816 264.812C85.8816 265.289 86.2644 265.664 86.7409 265.664C87.2175 265.664 87.6081 265.289 87.6081 264.812C87.6081 264.328 87.2175 263.953 86.7409 263.953C86.2644 263.953 85.8816 264.328 85.8816 264.812ZM86.0691 275H87.4128V266.789H86.0691V275ZM91.2928 275H92.6366V267.914H94.2459V266.789H92.6287V266.078C92.6287 265.078 93.0584 264.789 93.9491 264.789C94.1522 264.789 94.2537 264.805 94.3709 264.82V263.719C94.2303 263.695 94.0428 263.672 93.7694 263.672C92.0819 263.672 91.2928 264.398 91.2928 265.969V266.789H90.1834V267.914H91.2928V275ZM97.0009 264.812C97.0009 265.289 97.3838 265.664 97.8603 265.664C98.3369 265.664 98.7275 265.289 98.7275 264.812C98.7275 264.328 98.3369 263.953 97.8603 263.953C97.3838 263.953 97.0009 264.328 97.0009 264.812ZM97.1884 275H98.5322V266.789H97.1884V275ZM101.568 271.266C101.568 273.453 102.795 275.133 104.975 275.133C106.857 275.133 107.889 274.148 108.162 272.742H106.842C106.693 273.398 106.092 273.945 105.068 273.945C103.756 273.945 102.912 272.883 102.912 271.273V270.508C102.912 268.852 103.701 267.844 105.061 267.844C105.951 267.844 106.6 268.477 106.779 269.172H108.1C108.029 267.914 106.873 266.656 104.975 266.656C102.834 266.656 101.568 268.242 101.568 270.453V271.266ZM115.488 273.977H115.527V275H116.816V269.336C116.816 267.609 115.542 266.656 113.792 266.656C111.808 266.656 110.831 267.703 110.745 269.141H112.011C112.089 268.32 112.691 267.781 113.745 267.781C114.855 267.781 115.48 268.375 115.48 269.453V270.289H113.316C111.433 270.297 110.433 271.203 110.433 272.641C110.433 274.148 111.527 275.133 113.113 275.133C114.323 275.133 115.073 274.641 115.488 273.977ZM113.472 274.016C112.613 274.016 111.808 273.562 111.808 272.594C111.808 271.852 112.292 271.32 113.417 271.32H115.48V272.273C115.48 273.297 114.62 274.016 113.472 274.016ZM120.516 266.789H119.407V267.914H120.508V272.703C120.508 274.32 120.907 275.07 122.852 275.07C123.133 275.07 123.414 275.039 123.532 275.016V273.938C123.422 273.953 123.321 273.953 123.188 273.953C122.18 273.953 121.852 273.703 121.852 272.719V267.914H123.477V266.789H121.852V264.742H120.516V266.789ZM126.318 264.812C126.318 265.289 126.701 265.664 127.177 265.664C127.654 265.664 128.044 265.289 128.044 264.812C128.044 264.328 127.654 263.953 127.177 263.953C126.701 263.953 126.318 264.328 126.318 264.812ZM126.505 275H127.849V266.789H126.505V275ZM134.417 266.656C132.12 266.656 130.885 268.32 130.885 270.516V271.25C130.885 273.477 132.112 275.133 134.417 275.133C136.721 275.133 137.932 273.477 137.932 271.25V270.516C137.932 268.32 136.713 266.656 134.417 266.656ZM134.417 267.805C135.823 267.805 136.588 268.883 136.588 270.562V271.203C136.588 272.883 135.823 273.969 134.417 273.969C133.003 273.969 132.229 272.875 132.229 271.203V270.562C132.229 268.883 133.003 267.805 134.417 267.805ZM140.89 275H142.234V270C142.234 268.875 142.843 267.875 144.257 267.875C145.453 267.875 146.265 268.578 146.265 269.961V275H147.609V269.734C147.609 267.734 146.351 266.656 144.664 266.656C143.328 266.656 142.57 267.352 142.265 267.875H142.226V266.789H140.89V275ZM150.684 268.688C150.684 269.188 151.091 269.594 151.591 269.594C152.083 269.594 152.489 269.188 152.489 268.688C152.489 268.195 152.083 267.789 151.591 267.789C151.091 267.789 150.684 268.195 150.684 268.688ZM150.684 274.25C150.684 274.742 151.091 275.148 151.591 275.148C152.083 275.148 152.489 274.742 152.489 274.25C152.489 273.75 152.083 273.344 151.591 273.344C151.091 273.344 150.684 273.75 150.684 274.25ZM46.4531 295.492H41.0703V285.383H40.5156V296H46.4531V295.492ZM55.3722 295.484H49.9034V290.812H55.1066V290.297H49.9034V285.898H55.3722V285.383H49.3488V296H55.3722V295.484ZM58.7756 285.383V296H61.5569C64.9475 296 66.3225 293.938 66.3225 290.688C66.3225 287.445 64.8928 285.383 61.5569 285.383H58.7756ZM59.3303 285.898H61.5647C64.4788 285.898 65.76 287.766 65.76 290.688C65.76 293.633 64.51 295.484 61.5647 295.484H59.3303V285.898ZM76.4575 296V285.383H75.9184C75.0278 285.953 74.1059 286.555 73.2231 287.148V287.719C74.0903 287.141 75.0278 286.539 75.8716 285.992H75.9028V296H76.4575ZM79.9859 291.047C79.9859 294.43 81.3609 296.25 83.4078 296.25C85.4469 296.25 86.8297 294.43 86.8297 291.047V290.336C86.8297 286.953 85.4469 285.133 83.4078 285.133C81.3609 285.133 79.9859 286.953 79.9859 290.336V291.047ZM80.5563 290.312C80.5563 287.25 81.7359 285.641 83.4078 285.641C85.0797 285.641 86.2594 287.25 86.2594 290.312V291.07C86.2594 294.133 85.0797 295.742 83.4078 295.742C81.7359 295.742 80.5563 294.133 80.5563 291.07V290.312ZM92.4519 296L95.2566 286.281H95.2956L98.0925 296H98.7097L101.514 285.383H100.913L98.405 295.172H98.3737L95.5691 285.383H94.9753L92.1784 295.172H92.1472L89.6394 285.383H89.03L91.8347 296H92.4519ZM109.759 298.273V284.789H109.235V298.273H109.759ZM125.667 288.141C125.573 286.711 124.386 285.133 122.011 285.133C119.448 285.133 118.066 286.961 118.066 289.703V291.547C118.066 294.219 119.277 296.25 122.081 296.25C124.175 296.25 125.769 295.07 125.769 292.93V290.914H122.019V291.422H125.245V292.93C125.245 294.719 123.917 295.742 122.105 295.742C119.691 295.742 118.62 293.969 118.62 291.547V289.703C118.62 287.25 119.816 285.641 122.019 285.641C124.113 285.641 125.027 287.102 125.136 288.141H125.667ZM128.586 293.516C128.688 294.773 129.696 296.234 131.633 296.234C133.961 296.234 135.289 294.562 135.289 290.328C135.289 286.578 133.86 285.141 131.766 285.141C129.883 285.141 128.414 286.594 128.414 288.648C128.414 290.93 130.024 292.195 131.766 292.195C133.547 292.195 134.407 291.062 134.75 290.039H134.766C134.766 294.195 133.657 295.734 131.68 295.734C129.961 295.734 129.235 294.461 129.125 293.516H128.586ZM134.594 288.906C134.594 290.453 133.344 291.688 131.852 291.688C130.243 291.688 128.977 290.523 128.977 288.648C128.977 286.938 130.164 285.633 131.774 285.633C133.539 285.633 134.594 287.055 134.594 288.906ZM143.831 298.273V284.789H143.307V298.273H143.831ZM156.885 288.023V287.992C156.893 286.82 157.783 285.641 159.455 285.641C161.143 285.641 161.986 286.781 161.986 287.906C161.986 289.148 161.26 289.969 160.603 290.727L156.385 295.539V296H162.814V295.5H157.127V295.469L160.978 291.078C161.689 290.266 162.564 289.273 162.564 287.945C162.564 286.461 161.502 285.133 159.463 285.133C157.353 285.133 156.33 286.625 156.33 287.992V288.023H156.885ZM166.233 288.023V287.992C166.241 286.82 167.132 285.641 168.804 285.641C170.491 285.641 171.335 286.781 171.335 287.906C171.335 289.148 170.608 289.969 169.952 290.727L165.733 295.539V296H172.163V295.5H166.476V295.469L170.327 291.078C171.038 290.266 171.913 289.273 171.913 287.945C171.913 286.461 170.851 285.133 168.812 285.133C166.702 285.133 165.679 286.625 165.679 287.992V288.023H166.233ZM174.707 291.047C174.707 294.43 176.082 296.25 178.129 296.25C180.168 296.25 181.551 294.43 181.551 291.047V290.336C181.551 286.953 180.168 285.133 178.129 285.133C176.082 285.133 174.707 286.953 174.707 290.336V291.047ZM175.277 290.312C175.277 287.25 176.457 285.641 178.129 285.641C179.801 285.641 180.981 287.25 180.981 290.312V291.07C180.981 294.133 179.801 295.742 178.129 295.742C176.457 295.742 175.277 294.133 175.277 291.07V290.312ZM188.689 291.859V291.359H183.767V291.859H188.689ZM191.405 288.023V287.992C191.413 286.82 192.303 285.641 193.975 285.641C195.663 285.641 196.506 286.781 196.506 287.906C196.506 289.148 195.78 289.969 195.123 290.727L190.905 295.539V296H197.334V295.5H191.647V295.469L195.498 291.078C196.209 290.266 197.084 289.273 197.084 287.945C197.084 286.461 196.022 285.133 193.983 285.133C191.873 285.133 190.85 286.625 190.85 287.992V288.023H191.405ZM204.285 285.383C202.652 287.867 201.011 290.383 199.417 292.875V293.367H204.582V296H205.097V293.367H206.675V292.867H205.097V285.383H204.285ZM200.019 292.867V292.836C201.511 290.531 203.042 288.172 204.558 285.875H204.582V292.867H200.019ZM209.071 291.047C209.071 294.43 210.446 296.25 212.493 296.25C214.532 296.25 215.915 294.43 215.915 291.047V290.336C215.915 286.953 214.532 285.133 212.493 285.133C210.446 285.133 209.071 286.953 209.071 290.336V291.047ZM209.641 290.312C209.641 287.25 210.821 285.641 212.493 285.641C214.165 285.641 215.344 287.25 215.344 290.312V291.07C215.344 294.133 214.165 295.742 212.493 295.742C210.821 295.742 209.641 294.133 209.641 291.07V290.312ZM222.513 296L226.435 285.383H225.834L222.224 295.32H222.193L218.638 285.383H218.029L221.881 296H222.513ZM234.672 298.273V284.789H234.148V298.273H234.672ZM242.862 293.445C242.877 294.57 243.83 296.25 246.205 296.25C248.244 296.25 249.713 294.672 249.713 292.719C249.713 290.695 248.307 289.195 246.283 289.195C244.799 289.195 243.862 290.094 243.643 290.469H243.627L244.244 285.875H248.979V285.383H243.791L243.065 291.148H243.612C243.893 290.586 244.83 289.703 246.229 289.703C247.963 289.703 249.151 291.016 249.151 292.727C249.151 294.414 247.877 295.742 246.244 295.742C244.268 295.742 243.479 294.352 243.424 293.445H242.862ZM252.101 291.047C252.101 294.43 253.476 296.25 255.523 296.25C257.562 296.25 258.945 294.43 258.945 291.047V290.336C258.945 286.953 257.562 285.133 255.523 285.133C253.476 285.133 252.101 286.953 252.101 290.336V291.047ZM252.671 290.312C252.671 287.25 253.851 285.641 255.523 285.641C257.195 285.641 258.374 287.25 258.374 290.312V291.07C258.374 294.133 257.195 295.742 255.523 295.742C253.851 295.742 252.671 294.133 252.671 291.07V290.312ZM273.736 296V285.383H273.181V290.172H266.923V285.383H266.369V296H266.923V290.672H273.181V296H273.736ZM276.874 296H282.491V295.516H277.561V295.477L282.483 288.398V287.93H276.874V288.422H281.803V288.453L276.874 295.555V296Z" fill="black"/>
</g>
</svg>
